<?xml version="1.0" encoding="utf-8"?>
<!-- Generator: Adobe Illustrator 25.2.3, SVG Export Plug-In . SVG Version: 6.00 Build 0)  -->
<svg version="1.1" id="レイヤー_1" xmlns="http://www.w3.org/2000/svg" xmlns:xlink="http://www.w3.org/1999/xlink" x="0px"
	 y="0px" width="211.364px" height="29.808px" viewBox="0 0 211.364 29.808" style="enable-background:new 0 0 211.364 29.808;"
	 xml:space="preserve">
<style type="text/css">
	.st0{fill:#1C88CB;}
</style>
<g>
	<g>
		<path class="st0" d="M0.682,15.802c0-2.328,0.322-4.421,0.966-6.277c0.643-1.856,1.554-3.433,2.729-4.73S6.954,2.502,8.581,1.81
			c1.627-0.692,3.429-1.038,5.409-1.038c0.836,0,1.6,0.064,2.291,0.19c0.689,0.126,1.301,0.283,1.832,0.469
			c0.531,0.186,0.98,0.393,1.346,0.619c0.365,0.226,0.646,0.439,0.846,0.639c0.292,0.292,0.498,0.588,0.618,0.888
			c0.12,0.299,0.179,0.648,0.179,1.048c0,0.293-0.048,0.559-0.141,0.799c-0.093,0.239-0.226,0.446-0.398,0.618
			c-0.173,0.173-0.375,0.31-0.607,0.409c-0.233,0.1-0.489,0.15-0.767,0.15c-0.307,0-0.601-0.073-0.887-0.22
			c-0.286-0.147-0.621-0.303-1.006-0.469c-0.386-0.167-0.849-0.323-1.394-0.47c-0.546-0.146-1.223-0.219-2.032-0.219
			c-1.023,0-1.986,0.206-2.889,0.618c-0.903,0.413-1.697,1.035-2.381,1.866s-1.225,1.869-1.624,3.114
			C6.579,12.066,6.38,13.52,6.38,15.183c0,1.504,0.191,2.834,0.577,3.991c0.384,1.158,0.923,2.13,1.614,2.915s1.51,1.38,2.46,1.786
			c0.95,0.406,1.989,0.609,3.118,0.609c0.797,0,1.472-0.07,2.022-0.209c0.552-0.14,1.026-0.293,1.425-0.459
			c0.398-0.167,0.743-0.32,1.036-0.459c0.292-0.14,0.583-0.21,0.876-0.21c0.239,0,0.461,0.047,0.667,0.14
			c0.206,0.093,0.381,0.223,0.528,0.39c0.147,0.166,0.262,0.363,0.348,0.588c0.087,0.227,0.13,0.473,0.13,0.739
			c0,0.359-0.063,0.682-0.19,0.968c-0.126,0.286-0.322,0.562-0.588,0.829c-0.239,0.24-0.567,0.486-0.986,0.739
			c-0.419,0.253-0.927,0.486-1.524,0.698c-0.598,0.213-1.289,0.39-2.073,0.529c-0.784,0.139-1.66,0.209-2.629,0.209
			c-1.86,0-3.561-0.307-5.101-0.918s-2.858-1.487-3.954-2.625c-1.096-1.138-1.946-2.518-2.55-4.142
			C0.983,19.668,0.682,17.838,0.682,15.802z"/>
		<path class="st0" d="M25.047,18.836c0-1.703,0.245-3.23,0.737-4.581c0.491-1.35,1.198-2.494,2.122-3.433
			c0.923-0.938,2.041-1.653,3.356-2.145c1.316-0.492,2.797-0.739,4.443-0.739c1.527,0,2.912,0.243,4.154,0.728
			c1.241,0.486,2.308,1.175,3.197,2.066c0.89,0.892,1.576,1.966,2.062,3.224c0.485,1.258,0.727,2.652,0.727,4.181
			c0,1.703-0.245,3.23-0.737,4.581c-0.492,1.351-1.195,2.495-2.112,3.434c-0.917,0.938-2.032,1.653-3.347,2.145
			c-1.315,0.492-2.797,0.739-4.443,0.739c-1.527,0-2.916-0.243-4.163-0.728c-1.249-0.486-2.318-1.175-3.208-2.066
			c-0.89-0.891-1.578-1.963-2.062-3.214C25.289,21.777,25.047,20.38,25.047,18.836z M30.565,18.437c0,1.065,0.13,1.996,0.389,2.794
			c0.259,0.799,0.61,1.467,1.056,2.005c0.444,0.539,0.966,0.945,1.564,1.218c0.597,0.273,1.241,0.409,1.932,0.409
			c0.677,0,1.312-0.133,1.902-0.399c0.591-0.266,1.105-0.662,1.545-1.187c0.438-0.526,0.779-1.184,1.026-1.976
			c0.245-0.791,0.368-1.72,0.368-2.784c0-1.051-0.13-1.976-0.389-2.775s-0.61-1.467-1.056-2.006
			c-0.444-0.538-0.966-0.944-1.564-1.217c-0.597-0.272-1.234-0.409-1.911-0.409c-0.691,0-1.332,0.133-1.923,0.399
			c-0.591,0.266-1.105,0.662-1.543,1.187c-0.44,0.526-0.781,1.184-1.027,1.976C30.688,16.464,30.565,17.386,30.565,18.437z"/>
		<path class="st0" d="M50.029,19.255c0-1.743,0.256-3.313,0.767-4.71c0.511-1.398,1.235-2.585,2.171-3.563
			c0.936-0.978,2.056-1.727,3.357-2.245c1.301-0.519,2.743-0.778,4.323-0.778c0.61,0,1.162,0.043,1.654,0.129
			c0.491,0.087,0.926,0.193,1.304,0.319c0.378,0.127,0.698,0.27,0.957,0.429c0.259,0.16,0.461,0.319,0.607,0.479
			c0.239,0.227,0.414,0.476,0.528,0.748c0.112,0.273,0.169,0.609,0.169,1.008c0,0.266-0.043,0.512-0.129,0.739
			c-0.087,0.226-0.203,0.422-0.348,0.588c-0.147,0.167-0.326,0.296-0.538,0.39c-0.212,0.093-0.446,0.139-0.697,0.139
			c-0.266,0-0.508-0.04-0.728-0.12c-0.218-0.08-0.458-0.17-0.716-0.269c-0.259-0.1-0.562-0.193-0.906-0.28
			c-0.345-0.086-0.764-0.129-1.256-0.129c-0.691,0-1.341,0.14-1.952,0.419c-0.612,0.28-1.143,0.692-1.594,1.238
			c-0.452,0.546-0.808,1.228-1.066,2.046c-0.259,0.819-0.389,1.767-0.389,2.844c0,0.985,0.133,1.857,0.399,2.615
			c0.265,0.758,0.631,1.397,1.096,1.916c0.464,0.519,1.021,0.915,1.673,1.188c0.651,0.273,1.361,0.409,2.131,0.409
			c0.519,0,0.953-0.04,1.306-0.12c0.351-0.08,0.657-0.167,0.917-0.259c0.259-0.093,0.491-0.18,0.697-0.259
			c0.205-0.08,0.414-0.12,0.627-0.12c0.239,0,0.459,0.046,0.658,0.139c0.199,0.093,0.365,0.22,0.498,0.38
			c0.133,0.159,0.236,0.342,0.31,0.549c0.072,0.206,0.109,0.422,0.109,0.648c0,0.346-0.06,0.652-0.179,0.918
			c-0.12,0.266-0.292,0.519-0.517,0.758c-0.2,0.2-0.462,0.396-0.788,0.589c-0.325,0.193-0.716,0.363-1.175,0.509
			c-0.458,0.146-0.986,0.265-1.584,0.359c-0.597,0.093-1.262,0.14-1.992,0.14c-1.475,0-2.809-0.23-4.005-0.689
			c-1.195-0.459-2.215-1.114-3.058-1.966c-0.843-0.852-1.494-1.88-1.952-3.084C50.259,22.093,50.029,20.745,50.029,19.255z"/>
		<path class="st0" d="M69.572,18.836c0-1.703,0.247-3.23,0.737-4.581c0.492-1.35,1.199-2.494,2.122-3.433
			c0.923-0.938,2.043-1.653,3.357-2.145s2.795-0.739,4.443-0.739c1.527,0,2.912,0.243,4.153,0.728
			c1.243,0.486,2.308,1.175,3.197,2.066c0.89,0.892,1.578,1.966,2.062,3.224c0.485,1.258,0.727,2.652,0.727,4.181
			c0,1.703-0.245,3.23-0.736,4.581c-0.492,1.351-1.196,2.495-2.113,3.434c-0.915,0.938-2.031,1.653-3.347,2.145
			c-1.315,0.492-2.795,0.739-4.442,0.739c-1.528,0-2.916-0.243-4.165-0.728c-1.249-0.486-2.318-1.175-3.208-2.066
			c-0.89-0.891-1.576-1.963-2.061-3.214C69.814,21.777,69.572,20.38,69.572,18.836z M75.09,18.437c0,1.065,0.13,1.996,0.389,2.794
			c0.259,0.799,0.612,1.467,1.056,2.005c0.446,0.539,0.966,0.945,1.564,1.218c0.598,0.273,1.241,0.409,1.932,0.409
			c0.677,0,1.312-0.133,1.904-0.399c0.591-0.266,1.105-0.662,1.543-1.187s0.781-1.184,1.026-1.976
			c0.245-0.791,0.369-1.72,0.369-2.784c0-1.051-0.13-1.976-0.389-2.775s-0.612-1.467-1.056-2.006
			c-0.446-0.538-0.966-0.944-1.564-1.217c-0.598-0.272-1.235-0.409-1.913-0.409c-0.691,0-1.331,0.133-1.923,0.399
			c-0.591,0.266-1.105,0.662-1.543,1.187s-0.781,1.184-1.026,1.976S75.09,17.386,75.09,18.437z"/>
		<path class="st0" d="M95.81,10.393c0-0.731,0.191-1.291,0.577-1.676c0.384-0.386,0.942-0.579,1.673-0.579
			c0.359,0,0.674,0.043,0.947,0.129c0.272,0.087,0.504,0.213,0.697,0.38c0.193,0.166,0.348,0.372,0.468,0.618
			c0.12,0.247,0.206,0.523,0.259,0.829l0.259,1.457h0.06c0.253-0.519,0.546-1.001,0.878-1.448c0.332-0.446,0.703-0.828,1.116-1.148
			c0.411-0.319,0.852-0.568,1.325-0.748c0.471-0.179,0.966-0.269,1.484-0.269c0.757,0,1.341,0.206,1.753,0.619
			c0.413,0.412,0.618,1.051,0.618,1.916c0,1.012-0.191,1.793-0.577,2.346c-0.386,0.552-0.843,0.828-1.374,0.828
			c-0.147,0-0.28-0.016-0.399-0.049c-0.12-0.034-0.235-0.067-0.348-0.1c-0.112-0.033-0.229-0.067-0.348-0.099
			c-0.12-0.034-0.259-0.05-0.419-0.05c-0.319,0-0.634,0.083-0.945,0.25c-0.313,0.166-0.606,0.382-0.878,0.648
			c-0.272,0.266-0.528,0.569-0.767,0.909c-0.238,0.339-0.452,0.689-0.637,1.048v10.18c0,0.758-0.223,1.347-0.667,1.766
			c-0.446,0.419-1.126,0.629-2.043,0.629c-0.915,0-1.597-0.209-2.041-0.629c-0.446-0.419-0.667-1.008-0.667-1.766V10.393z"/>
		<path class="st0" d="M110.572,18.836c0-1.703,0.245-3.23,0.737-4.581c0.491-1.35,1.198-2.494,2.122-3.433
			c0.923-0.938,2.041-1.653,3.356-2.145c1.316-0.492,2.797-0.739,4.443-0.739c1.527,0,2.912,0.243,4.154,0.728
			c1.241,0.486,2.308,1.175,3.197,2.066c0.89,0.892,1.576,1.966,2.062,3.224c0.485,1.258,0.727,2.652,0.727,4.181
			c0,1.703-0.245,3.23-0.737,4.581c-0.492,1.351-1.195,2.495-2.112,3.434c-0.917,0.938-2.032,1.653-3.347,2.145
			c-1.315,0.492-2.797,0.739-4.443,0.739c-1.527,0-2.916-0.243-4.163-0.728c-1.249-0.486-2.318-1.175-3.208-2.066
			s-1.578-1.963-2.062-3.214C110.815,21.777,110.572,20.38,110.572,18.836z M116.091,18.437c0,1.065,0.13,1.996,0.389,2.794
			c0.259,0.799,0.61,1.467,1.056,2.005c0.444,0.539,0.966,0.945,1.564,1.218c0.597,0.273,1.241,0.409,1.932,0.409
			c0.677,0,1.312-0.133,1.902-0.399c0.591-0.266,1.105-0.662,1.545-1.187c0.438-0.526,0.779-1.184,1.026-1.976
			c0.245-0.791,0.368-1.72,0.368-2.784c0-1.051-0.13-1.976-0.389-2.775s-0.61-1.467-1.056-2.006
			c-0.444-0.538-0.966-0.944-1.564-1.217c-0.597-0.272-1.234-0.409-1.911-0.409c-0.691,0-1.332,0.133-1.923,0.399
			c-0.591,0.266-1.105,0.662-1.543,1.187c-0.44,0.526-0.781,1.184-1.027,1.976C116.213,16.464,116.091,17.386,116.091,18.437z"/>
		<path class="st0" d="M148.185,15.602c0.558,0,0.999,0.176,1.325,0.529c0.325,0.352,0.488,0.868,0.488,1.546
			c0,0.692-0.163,1.218-0.488,1.577c-0.326,0.36-0.767,0.539-1.325,0.539h-9.961c-0.558,0-0.999-0.179-1.325-0.539
			c-0.326-0.359-0.488-0.885-0.488-1.577c0-0.678,0.162-1.194,0.488-1.546c0.326-0.353,0.767-0.529,1.325-0.529H148.185z"/>
		<path class="st0" d="M156.292,10.393c0-0.731,0.193-1.291,0.577-1.676c0.386-0.386,0.944-0.579,1.673-0.579
			c0.359,0,0.674,0.043,0.947,0.129c0.272,0.087,0.508,0.213,0.707,0.38c0.199,0.166,0.359,0.369,0.479,0.609
			c0.12,0.239,0.199,0.505,0.239,0.799l0.159,1.018h0.081c0.384-0.585,0.863-1.104,1.434-1.557c0.239-0.2,0.514-0.393,0.827-0.579
			c0.311-0.186,0.66-0.353,1.045-0.499c0.386-0.146,0.808-0.262,1.265-0.349c0.458-0.086,0.96-0.129,1.504-0.129
			c1.527,0,2.822,0.306,3.885,0.918c1.062,0.612,1.892,1.463,2.49,2.554c0.438-0.639,0.977-1.217,1.614-1.736
			c0.278-0.212,0.588-0.422,0.926-0.629c0.339-0.206,0.718-0.392,1.137-0.559c0.419-0.166,0.873-0.3,1.364-0.399
			c0.492-0.1,1.023-0.15,1.594-0.15c1.129,0,2.155,0.179,3.078,0.538c0.924,0.36,1.711,0.892,2.361,1.597
			c0.651,0.705,1.152,1.574,1.504,2.604c0.351,1.032,0.528,2.219,0.528,3.563v10.12c0,0.758-0.223,1.347-0.667,1.766
			c-0.446,0.419-1.126,0.629-2.043,0.629c-0.917,0-1.597-0.209-2.041-0.629c-0.446-0.419-0.668-1.008-0.668-1.766V16.9
			c0-0.811-0.079-1.51-0.239-2.095c-0.159-0.585-0.392-1.065-0.697-1.437c-0.305-0.372-0.674-0.645-1.105-0.819
			c-0.432-0.173-0.914-0.259-1.445-0.259c-0.345,0-0.667,0.043-0.966,0.13c-0.299,0.087-0.579,0.2-0.837,0.339
			c-0.259,0.14-0.498,0.303-0.716,0.489c-0.22,0.187-0.416,0.373-0.588,0.559c-0.413,0.439-0.764,0.938-1.056,1.497
			c0,0.147,0.009,0.393,0.03,0.739c0.019,0.345,0.03,0.725,0.03,1.137v9.202c0,0.758-0.22,1.347-0.658,1.766
			c-0.438,0.419-1.116,0.629-2.032,0.629s-1.597-0.209-2.041-0.629c-0.446-0.419-0.668-1.008-0.668-1.766V16.9
			c0-0.811-0.082-1.51-0.248-2.095c-0.166-0.585-0.399-1.065-0.697-1.437c-0.299-0.372-0.668-0.645-1.107-0.819
			c-0.438-0.173-0.923-0.259-1.454-0.259c-0.332,0-0.648,0.043-0.947,0.13s-0.574,0.196-0.827,0.329
			c-0.253,0.133-0.485,0.289-0.697,0.469c-0.212,0.18-0.405,0.357-0.579,0.529c-0.411,0.439-0.757,0.925-1.035,1.457v11.178
			c0,0.758-0.223,1.347-0.668,1.766c-0.444,0.419-1.125,0.629-2.041,0.629c-0.917,0-1.597-0.209-2.043-0.629
			c-0.444-0.419-0.667-1.008-0.667-1.766V10.393z"/>
		<path class="st0" d="M197.553,19.615v0.04c0.079,0.826,0.266,1.557,0.558,2.195c0.292,0.639,0.68,1.178,1.165,1.617
			c0.486,0.44,1.066,0.772,1.744,0.998c0.677,0.227,1.434,0.339,2.272,0.339c0.689,0,1.285-0.046,1.783-0.14
			c0.498-0.093,0.933-0.196,1.306-0.31c0.371-0.113,0.7-0.216,0.986-0.309c0.286-0.093,0.555-0.14,0.808-0.14
			c0.251,0,0.477,0.046,0.677,0.14c0.199,0.093,0.368,0.216,0.507,0.369c0.141,0.153,0.247,0.33,0.319,0.529
			c0.073,0.2,0.111,0.413,0.111,0.639c0,0.333-0.054,0.622-0.16,0.868c-0.106,0.247-0.278,0.489-0.517,0.728
			c-0.199,0.2-0.492,0.41-0.876,0.629c-0.386,0.22-0.86,0.419-1.425,0.599c-0.564,0.179-1.222,0.329-1.973,0.449
			c-0.751,0.12-1.584,0.179-2.5,0.179c-1.581,0-3.001-0.23-4.264-0.689c-1.261-0.459-2.33-1.118-3.206-1.976
			c-0.878-0.858-1.548-1.896-2.013-3.114c-0.465-1.217-0.697-2.585-0.697-4.101c0-1.77,0.248-3.35,0.746-4.741
			c0.498-1.39,1.192-2.565,2.083-3.523c0.888-0.959,1.955-1.69,3.197-2.196c1.241-0.505,2.607-0.758,4.093-0.758
			c1.276,0,2.432,0.2,3.467,0.599c1.036,0.399,1.92,0.975,2.65,1.727c0.731,0.751,1.295,1.667,1.694,2.744
			c0.398,1.078,0.597,2.302,0.597,3.673c0,0.997-0.229,1.736-0.686,2.216c-0.459,0.479-1.113,0.719-1.964,0.719H197.553z
			 M205.642,16.141c-0.173-1.49-0.574-2.588-1.205-3.293s-1.524-1.058-2.68-1.058c-0.479,0-0.936,0.083-1.374,0.25
			c-0.438,0.166-0.84,0.425-1.205,0.778c-0.366,0.352-0.68,0.802-0.947,1.347c-0.266,0.546-0.471,1.205-0.618,1.976H205.642z"/>
	</g>
</g>
</svg>
